<svg width="2810" height="885" viewBox="0 0 2810 885" fill="none" xmlns="http://www.w3.org/2000/svg">
<g clip-path="url(#clip0_90_3)">
<path d="M445.626 329.613C512.849 368.646 534.537 412.014 531.282 502.01C526.947 616.939 451.05 673.323 276.484 679.827H1.08425L0 660.309C69.3921 598.506 71.5608 73.7292 0 20.6008V0H206.008C319.854 0 513.934 15.1795 513.934 170.228C513.934 234.199 507.43 293.832 445.626 329.613ZM206.008 37.9489C178.902 37.9489 158.301 323.107 206.008 322.023C312.264 320.939 357.803 276.484 357.803 170.228C357.803 70.4765 285.158 37.9489 206.008 37.9489ZM204.924 359.972C158.301 359.972 181.07 642.961 204.924 642.961C307.928 642.961 374.067 592.001 374.067 471.648C374.067 379.488 277.568 359.972 204.924 359.972Z" fill="#F1F7F7"/>
<path d="M1051.44 177.816V198.417C976.63 241.787 893.143 700.425 819.415 817.523C771.706 893.425 632.924 908.603 565.7 844.63C523.415 804.514 634.005 684.161 668.701 752.469C719.661 850.054 768.455 840.295 802.067 749.219C753.273 606.094 641.598 256.967 557.026 198.417V177.816H795.558V198.417C753.273 240.703 830.255 427.196 870.375 548.63C916.996 392.5 959.282 214.681 932.175 198.417V177.816H1051.44Z" fill="#F1F7F7"/>
<path d="M1119.23 679.827C1118.14 577.907 1140.91 72.6448 1072.6 20.6008V0H1261.26C1261.26 43.3702 1261.26 123.605 1260.18 213.598C1620.15 24.9378 1675.45 683.078 1357.76 683.078C1268.85 683.078 1223.31 648.381 1162.59 679.827H1119.23ZM1293.79 250.462C1252.59 250.462 1211.39 646.215 1291.62 646.215C1483.54 646.215 1451 250.462 1293.79 250.462Z" fill="#F1F7F7"/>
<path d="M2029.55 519.355L2050.15 534.534C1971 752.468 1588.26 737.289 1588.26 456.467C1588.26 315.515 1680.42 176.73 1848.48 176.73C2045.81 176.73 2051.24 362.138 2051.24 444.543H1723.79C1731.38 568.146 1973.17 651.633 2029.55 519.355ZM1723.79 407.677C1757.4 407.677 1817.04 406.592 1862.58 399.003C2008.95 376.233 1921.12 213.595 1815.95 213.595C1770.41 213.595 1723.79 279.735 1723.79 407.677Z" fill="#F1F7F7"/>
<path d="M2436.43 224.44C2528.59 184.323 2603.41 183.239 2603.41 207.092C2603.41 397.92 2611 176.733 2767.13 176.733C2825.68 176.733 2825.68 341.54 2753.03 315.518C2722.67 303.591 2674.97 281.905 2631.6 323.107C2570.88 380.573 2588.23 607.18 2645.69 659.225L2646.78 679.827H2416.92L2415.83 659.225C2468.96 605.014 2481.97 320.939 2436.43 224.44ZM2073.21 177.817H2261.87C2261.87 202.755 2261.87 236.367 2260.78 261.305C2321.5 173.48 2414.75 0 2544.86 0C2729.18 0 2698.82 166.975 2626.18 150.711C2494.98 122.52 2372.46 162.638 2307.4 291.664C2242.35 420.689 2238.02 598.506 2303.07 659.225L2304.15 679.827H2074.29L2073.21 659.225C2135.01 598.506 2142.6 240.704 2073.21 197.334V177.817Z" fill="#F1F7F7"/>
</g>
<defs>
<clipPath id="clip0_90_3">
<rect width="2809.57" height="884.721" fill="white"/>
</clipPath>
</defs>
</svg>
